<svg xmlns="http://www.w3.org/2000/svg" xmlns:xlink="http://www.w3.org/1999/xlink" xmlns:lucid="lucid" width="1002" height="471"><g transform="translate(601.0000001231415 390)" lucid:page-tab-id="0_0"><path d="M-460-160c0 22.1-17.9 40-40 40s-40-17.9-40-40 17.9-40 40-40 40 17.9 40 40z" stroke="#fff" stroke-width="2" fill-opacity="0"/><use xlink:href="#a" transform="matrix(1,0,0,1,-535,-195) translate(30.48068576388889 43.40277777777778)"/><path d="M-595-196.67a3.2 3.2 0 0 0-5 2.67v68a3.2 3.2 0 0 0 5 2.67l50-33.34a4 4 0 0 0 0-6.66zM-40-120c0 22.1-17.9 40-40 40s-40-17.9-40-40 17.9-40 40-40 40 17.9 40 40z" stroke="#fff" stroke-width="2" fill-opacity="0"/><use xlink:href="#b" transform="matrix(1,0,0,1,-115,-155) translate(28.223741319444443 43.40277777777778)"/><path d="M-458-160h78.5" stroke="#fff" stroke-width="2" fill="none"/><path d="M-457.97-159.03h-1.1l.07-.96-.03-.97h1.06z" stroke="#fff" stroke-width=".05" fill="#fff"/><path d="M-364.24-160l-14.26 4.63v-9.26z" stroke="#fff" stroke-width="2" fill="#fff"/><use xlink:href="#c" transform="matrix(1,0,0,1,-422.49392361111103,-185.51041666666666) translate(0 17.22222222222222)"/><path d="M-500-118V-6a6 6 0 0 0 6 6h258.5" stroke="#fff" stroke-width="2" fill="none"/><path d="M-500-119l.98-.03v1.06h-1.96v-1.1z" stroke="#fff" stroke-width=".05" fill="#fff"/><path d="M-220.24 0l-14.26 4.63v-9.27z" stroke="#fff" stroke-width="2" fill="#fff"/><use xlink:href="#d" transform="matrix(1,0,0,1,-389.1867253354138,-25.510416666666664) translate(0 17.22222222222222)"/><path d="M-320-118v12a6 6 0 0 0 6 6h48a6 6 0 0 0 6-6v-53.5a.5.5 0 0 0-.5-.5" stroke="#fff" stroke-width="2" fill="none"/><path d="M-320-119l.98-.03v1.06h-1.96v-1.1z" stroke="#fff" stroke-width=".05" fill="#fff"/><path d="M-275.76-160l14.26-4.63v9.26z" stroke="#fff" stroke-width="2" fill="#fff"/><use xlink:href="#c" transform="matrix(1,0,0,1,-295.1765877291669,-125.51041666666666) translate(0 17.22222222222222)"/><path d="M-320-198v-116a6 6 0 0 1 6-6h70.5" stroke="#fff" stroke-width="2" fill="none"/><path d="M-319.02-196.94l-.96-.06-1 .02v-1.05h1.96z" stroke="#fff" stroke-width=".05" fill="#fff"/><path d="M-228.24-320l-14.26 4.63v-9.26z" stroke="#fff" stroke-width="2" fill="#fff"/><use xlink:href="#d" transform="matrix(1,0,0,1,-339.20659722222223,-264.16628008769004) translate(0 17.22222222222222)"/><path d="M180-200c0 22.1-17.9 40-40 40s-40-17.9-40-40 17.9-40 40-40 40 17.9 40 40z" stroke="#fff" stroke-width="2" fill-opacity="0"/><use xlink:href="#e" transform="matrix(1,0,0,1,105,-235) translate(28.13693576388889 43.40277777777778)"/><path d="M80 0c0 22.1-17.9 40-40 40S0 22.1 0 0s17.9-40 40-40S80-22.1 80 0z" stroke="#fff" stroke-width="2" fill-opacity="0"/><use xlink:href="#f" transform="matrix(1,0,0,1,5,-35) translate(27.822265625 43.40277777777778)"/><path d="M-142-320h122.74" stroke="#fff" stroke-width="2" fill="none"/><path d="M-141.97-319.02h-1.1l.07-.97-.03-.98h1.06z" stroke="#fff" stroke-width=".05" fill="#fff"/><path d="M-4-320l-14.26 4.63v-9.26z" stroke="#fff" stroke-width="2" fill="#fff"/><use xlink:href="#c" transform="matrix(1,0,0,1,-85.16059027777766,-345.51041666666663) translate(0 17.22222222222222)"/><path d="M-180-278.24V-59.5" stroke="#fff" stroke-width="2" fill="none"/><path d="M-179.03-278.22h-1.94v-.9l1.94-.25z" stroke="#fff" stroke-width=".05" fill="#fff"/><path d="M-180-44.24l-4.63-14.26h9.26z" stroke="#fff" stroke-width="2" fill="#fff"/><use xlink:href="#d" transform="matrix(1,0,0,1,-171.99999999999994,-266.0806477003094) translate(0 17.22222222222222)"/><path d="M280-328c0 22.1-17.9 40-40 40s-40-17.9-40-40 17.9-40 40-40 40 17.9 40 40z" stroke="#fff" stroke-width="2" fill-opacity="0"/><use xlink:href="#g" transform="matrix(1,0,0,1,205,-363) translate(23.47113715277778 43.40277777777778)"/><path d="M78-324h102.74" stroke="#fff" stroke-width="2" fill="none"/><path d="M78.03-323.02h-1.1l.07-.96-.02-1h1.05z" stroke="#fff" stroke-width=".05" fill="#fff"/><path d="M196-324l-14.26 4.63v-9.26z" stroke="#fff" stroke-width="2" fill="#fff"/><use xlink:href="#c" transform="matrix(1,0,0,1,125.98120784429011,-349.51041666666663) translate(0 17.22222222222222)"/><path d="M281.14-320H294a6 6 0 0 0 6-6v-58a6 6 0 0 0-6-6h-58.77a3.3 3.3 0 0 0-3.3 3.3" stroke="#fff" stroke-width="2" fill="none"/><path d="M281.17-319.02h-1.2l.36-1.96h.84z" stroke="#fff" stroke-width=".05" fill="#fff"/><path d="M231.94-371.44l-4.64-14.27h9.27z" stroke="#fff" stroke-width="2" fill="#fff"/><use xlink:href="#h" transform="matrix(1,0,0,1,259.35820444979544,-415.51041666666663) translate(0 17.22222222222222)"/><path d="M182-200h52a6 6 0 0 0 6-6v-62.5" stroke="#fff" stroke-width="2" fill="none"/><path d="M182.03-199.03h-1.1l.07-.96-.03-.97h1.06z" stroke="#fff" stroke-width=".05" fill="#fff"/><path d="M240-283.76l4.63 14.26h-9.26z" stroke="#fff" stroke-width="2" fill="#fff"/><use xlink:href="#c" transform="matrix(1,0,0,1,208.1727430555557,-225.51041666666669) translate(0 17.22222222222222)"/><path d="M40-282v54.04a6 6 0 0 1-6 6H-76.07a6 6 0 0 0-6 6v36.53" stroke="#fff" stroke-width="2" fill="none"/><path d="M40-283l.98-.03v1.06h-1.95v-1.1z" stroke="#fff" stroke-width=".05" fill="#fff"/><path d="M-82.07-164.16l-4.64-14.27h9.26z" stroke="#fff" stroke-width="2" fill="#fff"/><use xlink:href="#d" transform="matrix(1,0,0,1,-22.93663194444425,-247.47382136987525) translate(0 17.22222222222222)"/><path d="M-38-120h172a6 6 0 0 0 6-6v-14.5" stroke="#fff" stroke-width="2" fill="none"/><path d="M-37.97-119.03h-1.1l.07-.96-.03-.97h1.06z" stroke="#fff" stroke-width=".05" fill="#fff"/><path d="M140-155.76l4.63 14.26h-9.26z" stroke="#fff" stroke-width="2" fill="#fff"/><use xlink:href="#c" transform="matrix(1,0,0,1,72.17274305555571,-145.51041666666669) translate(0 17.22222222222222)"/><path d="M98-200H46a6 6 0 0 0-6 6v39.15a6 6 0 0 1-6 6h-66.46" stroke="#fff" stroke-width="2" fill="none"/><path d="M99-200l.03.97h-1.06v-1.94h1.1z" stroke="#fff" stroke-width=".05" fill="#fff"/><path d="M-47.72-148.85l14.26-4.63v9.27z" stroke="#fff" stroke-width="2" fill="#fff"/><use xlink:href="#d" transform="matrix(1,0,0,1,58.39670138888911,-225.51041666666669) translate(0 17.22222222222222)"/><path d="M-43.45-99.65H273a6 6 0 0 0 6-6v-53.68a6 6 0 0 1 6-6h15.5" stroke="#fff" stroke-width="2" fill="none"/><path d="M-43.42-98.67h-1.64l1.07-1.7.12-.25h.46z" stroke="#fff" stroke-width=".05" fill="#fff"/><path d="M315.76-165.33l-14.26 4.63v-9.27z" stroke="#fff" stroke-width="2" fill="#fff"/><use xlink:href="#d" transform="matrix(1,0,0,1,161.1923426009341,-125.15700279699978) translate(0 17.22222222222222)"/><path d="M-150.1-29h33a6 6 0 0 0 6-6v-19.74a6 6 0 0 1 6-6h390.83a6 6 0 0 0 6-6v-62.93a6 6 0 0 1 6-6h15.5" stroke="#fff" stroke-width="2" fill="none"/><path d="M-150.07-28.02h-.1l-1.85-1.95h1.95z" stroke="#fff" stroke-width=".05" fill="#fff"/><path d="M328.5-135.67l-14.27 4.63v-9.27z" stroke="#fff" stroke-width="2" fill="#fff"/><use xlink:href="#c" transform="matrix(1,0,0,1,61.4884331925554,-86.25532012721726) translate(0 17.22222222222222)"/><path d="M-138 0h118.5" stroke="#fff" stroke-width="2" fill="none"/><path d="M-137.97.97h-1.1l.07-.96-.03-.97h1.06z" stroke="#fff" stroke-width=".05" fill="#fff"/><path d="M-4.24 0L-18.5 4.63v-9.27z" stroke="#fff" stroke-width="2" fill="#fff"/><use xlink:href="#d" transform="matrix(1,0,0,1,-75.6032986111111,-25.510416666666664) translate(0 17.22222222222222)"/><path d="M40 42v33a6 6 0 0 0 6 6h62.32a6 6 0 0 0 6-6V28.3a6 6 0 0 0-6-6h-15.5" stroke="#fff" stroke-width="2" fill="none"/><path d="M40 41l.98-.03v1.06h-1.95v-1.1z" stroke="#fff" stroke-width=".05" fill="#fff"/><path d="M77.55 22.3l14.27-4.63v9.27z" stroke="#fff" stroke-width="2" fill="#fff"/><use xlink:href="#d" transform="matrix(1,0,0,1,72.39670138888889,55.49020705302172) translate(0 17.22222222222222)"/><path d="M82 0h272a6 6 0 0 0 6-6v-99.83" stroke="#fff" stroke-width="2" fill="none"/><path d="M82.03.97h-1.1L81 .02l-.03-.97h1.06z" stroke="#fff" stroke-width=".05" fill="#fff"/><path d="M360-121.1l4.63 14.27h-9.26z" stroke="#fff" stroke-width="2" fill="#fff"/><use xlink:href="#c" transform="matrix(1,0,0,1,105.83940972222223,-25.510416666666664) translate(0 17.22222222222222)"/><path d="M360-207.33v-33a6 6 0 0 0-6-6h-79.9a6 6 0 0 1-6-6v-27.4" stroke="#fff" stroke-width="2" fill="none"/><path d="M360.98-206.27l-.97-.06-.98.03v-1.06h1.96z" stroke="#fff" stroke-width=".05" fill="#fff"/><path d="M268.1-295l4.63 14.26h-9.27z" stroke="#fff" stroke-width="2" fill="#fff"/><use xlink:href="#h" transform="matrix(1,0,0,1,299.4636407132457,-271.84437371972723) translate(0 17.22222222222222)"/><path d="M-280-160c0 22.1-17.9 40-40 40s-40-17.9-40-40 17.9-40 40-40 40 17.9 40 40z" stroke="#fff" stroke-width="2" fill-opacity="0"/><path d="M-284-160c0 19.88-16.12 36-36 36s-36-16.12-36-36 16.12-36 36-36 36 16.12 36 36z" stroke="#fff" stroke-width="2" fill-opacity="0"/><use xlink:href="#i" transform="matrix(1,0,0,1,-351,-191) translate(24.10980902777778 40.90277777777778)"/><path d="M-140 0c0 22.1-17.9 40-40 40s-40-17.9-40-40 17.9-40 40-40 40 17.9 40 40z" stroke="#fff" stroke-width="2" fill-opacity="0"/><path d="M-144 0c0 19.88-16.12 36-36 36s-36-16.12-36-36 16.12-36 36-36 36 16.12 36 36z" stroke="#fff" stroke-width="2" fill-opacity="0"/><use xlink:href="#j" transform="matrix(1,0,0,1,-211,-31) translate(24.712022569444443 40.90277777777778)"/><path d="M-144-320c0 22.1-17.9 40-40 40s-40-17.9-40-40 17.9-40 40-40 40 17.9 40 40z" stroke="#fff" stroke-width="2" fill-opacity="0"/><path d="M-148-320c0 19.88-16.12 36-36 36s-36-16.12-36-36 16.12-36 36-36 36 16.12 36 36z" stroke="#fff" stroke-width="2" fill-opacity="0"/><use xlink:href="#k" transform="matrix(1,0,0,1,-215,-351) translate(24.126085069444443 40.90277777777778)"/><path d="M80-324c0 22.1-17.9 40-40 40S0-301.9 0-324s17.9-40 40-40 40 17.9 40 40z" stroke="#fff" stroke-width="2" fill-opacity="0"/><path d="M76-324c0 19.88-16.12 36-36 36S4-304.12 4-324s16.12-36 36-36 36 16.12 36 36z" stroke="#fff" stroke-width="2" fill-opacity="0"/><use xlink:href="#l" transform="matrix(1,0,0,1,9,-355) translate(24.10980902777778 40.90277777777778)"/><path d="M400-165.33c0 22.1-17.9 40-40 40s-40-17.9-40-40 17.9-40 40-40 40 17.9 40 40z" stroke="#fff" stroke-width="2" fill-opacity="0"/><path d="M396-165.33c0 19.88-16.12 36-36 36s-36-16.12-36-36c0-19.9 16.12-36 36-36s36 16.1 36 36z" stroke="#fff" stroke-width="2" fill-opacity="0"/><use xlink:href="#m" transform="matrix(1,0,0,1,329,-196.33333333337214) translate(24.245442708333336 40.90277777777778)"/><defs><path fill="#fff" d="M653-1490V0H466v-1314h-10L96-1047v-204l324-239h233" id="n"/><use transform="matrix(0.010850694444444444,0,0,0.010850694444444444,0,0)" xlink:href="#n" id="a"/><path fill="#fff" d="M154 0v-137l495-537c165-179 249-281 249-418 0-156-121-253-280-253-170 0-278 110-278 278H158c0-264 200-443 465-443 266 0 455 183 455 416 0 161-73 288-336 568L416-179v12h687V0H154" id="o"/><use transform="matrix(0.010850694444444444,0,0,0.010850694444444444,0,0)" xlink:href="#o" id="b"/><path fill="#fff" d="M440 22C227 22 68-92 68-313c0-250 202-322 422-343 195-21 271-24 271-105 0-95-63-149-175-149-116 0-187 57-211 129l-275-46c57-194 237-305 487-305 240 0 474 108 474 379V0H777v-155h-10C713-51 605 22 440 22zm85-211c140 0 238-93 238-211v-121c-37 26-156 42-222 51-111 16-185 59-185 149 0 87 70 132 169 132" id="p"/><use transform="matrix(0.008680555555555556,0,0,0.008680555555555556,0,0)" xlink:href="#p" id="c"/><path fill="#fff" d="M754 19C571 19 479-89 437-179h-14V0H128v-1490h300v560h9c41-89 129-202 319-202 248 0 453 193 453 575 0 372-197 576-455 576zm-92-241c156 0 240-139 240-336 0-196-83-334-240-334-154 0-241 131-241 334 0 202 88 336 241 336" id="q"/><use transform="matrix(0.008680555555555556,0,0,0.008680555555555556,0,0)" xlink:href="#q" id="d"/><path fill="#fff" d="M635 20c-292 0-500-160-510-396h192c11 142 145 229 315 229 187 0 323-105 323-260 0-161-125-274-346-274H488v-165h121c174 0 294-100 294-254 0-148-104-245-266-245-152 0-291 85-297 230H157c8-234 222-395 484-395 278 0 448 188 448 400 0 168-95 291-247 336v12c190 31 301 169 301 357 0 244-216 425-508 425" id="r"/><use transform="matrix(0.010850694444444444,0,0,0.010850694444444444,0,0)" xlink:href="#r" id="e"/><path fill="#fff" d="M120-303v-155l652-1032h231v1020h202v167h-202V0H821v-303H120zm702-167v-782h-12L323-482v12h499" id="s"/><use transform="matrix(0.010850694444444444,0,0,0.010850694444444444,0,0)" xlink:href="#s" id="f"/><path fill="#fff" d="M646 20c-332 0-524-278-524-764 0-483 194-766 524-766s524 283 524 766c0 485-191 764-524 764zm0-166c218 0 341-220 341-598 0-380-123-601-341-601s-341 222-341 601c0 378 123 598 341 598" id="t"/><g id="g"><use transform="matrix(0.010850694444444444,0,0,0.010850694444444444,0,0)" xlink:href="#n"/><use transform="matrix(0.010850694444444444,0,0,0.010850694444444444,9.038628472222221,0)" xlink:href="#t"/></g><path fill="#fff" d="M119 395l88-620h300L323 395H119" id="u"/><g id="h"><use transform="matrix(0.008680555555555556,0,0,0.008680555555555556,0,0)" xlink:href="#p"/><use transform="matrix(0.008680555555555556,0,0,0.008680555555555556,10.321180555555555,0)" xlink:href="#u"/><use transform="matrix(0.008680555555555556,0,0,0.008680555555555556,16.258680555555557,0)" xlink:href="#q"/></g><path fill="#fff" d="M646 20c-249 0-524-159-524-708 0-524 209-822 547-822 250 0 431 161 467 395H950c-33-129-126-227-281-227-229 0-367 208-367 566h12c80-124 212-198 367-198 255 0 467 205 467 493 0 278-198 501-502 501zm0-167c179 0 318-148 318-334 0-182-133-328-313-328-181 0-322 156-322 330 0 176 134 332 317 332" id="v"/><use transform="matrix(0.010850694444444444,0,0,0.010850694444444444,0,0)" xlink:href="#v" id="i"/><path fill="#fff" d="M200 0l662-1311v-12H98v-167h963v177L400 0H200" id="w"/><use transform="matrix(0.010850694444444444,0,0,0.010850694444444444,0,0)" xlink:href="#w" id="j"/><path fill="#fff" d="M633 20c-303 0-511-173-511-416 0-188 124-348 291-378v-8c-145-37-237-174-237-332 0-227 192-396 457-396 261 0 456 169 456 396 0 158-94 295-235 332v8c162 30 291 190 291 378 0 243-212 416-512 416zm0-165c197 0 322-103 322-261 0-165-138-283-322-283-188 0-324 118-324 283 0 158 123 261 324 261zm0-703c157 0 272-101 272-252 0-149-110-246-272-246-165 0-273 97-273 246 0 151 112 252 273 252" id="x"/><use transform="matrix(0.010850694444444444,0,0,0.010850694444444444,0,0)" xlink:href="#x" id="k"/><path fill="#fff" d="M603 20c-253 0-434-161-469-399h188c31 132 124 231 281 231 227 0 367-207 367-568h-12c-80 122-211 199-367 199-257 0-469-206-469-493 0-278 200-505 506-500 245 4 520 158 520 706 0 527-208 824-545 824zm16-703c181 0 324-157 324-332 0-171-135-328-318-328-180 0-317 148-317 332 0 183 131 328 311 328" id="y"/><use transform="matrix(0.010850694444444444,0,0,0.010850694444444444,0,0)" xlink:href="#y" id="l"/><path fill="#fff" d="M626 20c-262 0-458-168-468-396h184c12 133 134 229 284 229 180 0 311-137 311-326 0-192-136-335-323-335-92 0-196 33-255 78l-178-22 88-738h784v167H429l-51 435h8c61-51 160-87 263-87 273 0 474 211 474 499 0 286-210 496-497 496" id="z"/><use transform="matrix(0.010850694444444444,0,0,0.010850694444444444,0,0)" xlink:href="#z" id="m"/></defs></g></svg>